<svg width="139" height="28" viewBox="0 0 139 28" fill="none" xmlns="http://www.w3.org/2000/svg">
<path d="M17.4355 4.375C18.9189 4.77396 20.2714 5.55567 21.3576 6.64184C22.4438 7.72801 23.2255 9.08051 23.6244 10.5639" stroke="white" stroke-width="1.5" stroke-linecap="round" stroke-linejoin="round"/>
<path d="M16.5303 7.75687C17.4201 7.99625 18.2314 8.46521 18.883 9.11678C19.5345 9.76835 20.0035 10.5797 20.2429 11.4695" stroke="white" stroke-width="1.5" stroke-linecap="round" stroke-linejoin="round"/>
<path d="M10.115 13.6517C11.0224 15.5074 12.5263 17.0049 14.3859 17.9042C14.522 17.9688 14.6727 17.9966 14.8229 17.9851C14.9731 17.9736 15.1178 17.9231 15.2425 17.8386L17.9812 16.0134C18.1022 15.9326 18.2414 15.8833 18.3862 15.8698C18.5311 15.8564 18.677 15.8793 18.8107 15.9364L23.9339 18.1326C24.1079 18.2065 24.2532 18.335 24.3479 18.4987C24.4426 18.6623 24.4815 18.8523 24.4589 19.04C24.2967 20.307 23.6784 21.4714 22.7196 22.3154C21.7608 23.1593 20.5273 23.6249 19.25 23.625C15.3049 23.625 11.5214 22.0578 8.73179 19.2682C5.94218 16.4786 4.375 12.6951 4.375 8.75C4.37512 7.47279 4.84074 6.23941 5.68471 5.28077C6.52867 4.32213 7.6931 3.70396 8.96 3.542C9.14771 3.51936 9.33769 3.55832 9.50134 3.653C9.66499 3.74769 9.79345 3.89298 9.86738 4.067L12.0654 9.1945C12.1219 9.32698 12.1449 9.47137 12.1322 9.61485C12.1195 9.75833 12.0716 9.89647 11.9928 10.017L10.1728 12.7977C10.0901 12.923 10.0414 13.0675 10.0313 13.2171C10.0212 13.3668 10.05 13.5165 10.115 13.6517V13.6517Z" stroke="white" stroke-width="1.5" stroke-linecap="round" stroke-linejoin="round"/>
<path d="M40.578 21.104C39.6633 20.2267 38.9587 19.1113 38.464 17.758C37.9787 16.4047 37.736 14.9533 37.736 13.404C37.736 11.8173 37.9973 10.3193 38.52 8.91C39.052 7.50067 39.8313 6.33867 40.858 5.424H42.51V5.578C41.4367 6.56733 40.6293 7.75267 40.088 9.134C39.5467 10.5153 39.276 11.9387 39.276 13.404C39.276 14.8133 39.528 16.176 40.032 17.492C40.536 18.808 41.2687 19.9607 42.23 20.95V21.104H40.578ZM44.6126 16.33C45.5086 15.5553 46.2133 14.9207 46.7266 14.426C47.2493 13.922 47.6833 13.3993 48.0286 12.858C48.374 12.3167 48.5466 11.7753 48.5466 11.234C48.5466 10.674 48.4113 10.2353 48.1406 9.918C47.8793 9.60067 47.464 9.442 46.8946 9.442C46.344 9.442 45.9146 9.61933 45.6066 9.974C45.308 10.3193 45.1493 10.786 45.1306 11.374H43.5906C43.6186 10.31 43.936 9.498 44.5426 8.938C45.1586 8.36867 45.938 8.084 46.8806 8.084C47.898 8.084 48.6913 8.364 49.2606 8.924C49.8393 9.484 50.1286 10.2307 50.1286 11.164C50.1286 11.836 49.956 12.4847 49.6106 13.11C49.2746 13.726 48.8686 14.2813 48.3926 14.776C47.926 15.2613 47.3286 15.826 46.6006 16.47L45.9706 17.03H50.4086V18.36H43.6046V17.198L44.6126 16.33ZM51.6007 9.75V8.294H54.5127V18.5H52.9027V9.75H51.6007ZM58.6932 15.728C58.7866 16.1947 58.9872 16.5493 59.2952 16.792C59.6032 17.0347 60.0186 17.156 60.5412 17.156C61.2039 17.156 61.6892 16.8947 61.9972 16.372C62.3052 15.8493 62.4592 14.958 62.4592 13.698C62.2352 14.0153 61.9179 14.2627 61.5072 14.44C61.1059 14.608 60.6672 14.692 60.1912 14.692C59.5846 14.692 59.0339 14.5707 58.5392 14.328C58.0446 14.076 57.6526 13.7073 57.3632 13.222C57.0832 12.7273 56.9432 12.13 56.9432 11.43C56.9432 10.4033 57.2419 9.58667 57.8392 8.98C58.4459 8.364 59.2766 8.056 60.3312 8.056C61.6006 8.056 62.5012 8.48067 63.0332 9.33C63.5746 10.17 63.8452 11.4627 63.8452 13.208C63.8452 14.412 63.7426 15.3967 63.5372 16.162C63.3412 16.9273 62.9959 17.506 62.5012 17.898C62.0066 18.29 61.3206 18.486 60.4432 18.486C59.4446 18.486 58.6746 18.2247 58.1332 17.702C57.5919 17.1793 57.2886 16.5213 57.2232 15.728H58.6932ZM60.4712 13.348C61.0312 13.348 61.4699 13.1753 61.7872 12.83C62.1139 12.4753 62.2772 12.0087 62.2772 11.43C62.2772 10.786 62.1046 10.2867 61.7592 9.932C61.4232 9.568 60.9612 9.386 60.3732 9.386C59.7852 9.386 59.3186 9.57267 58.9732 9.946C58.6372 10.31 58.4692 10.7907 58.4692 11.388C58.4692 11.9573 58.6326 12.4287 58.9592 12.802C59.2952 13.166 59.7992 13.348 60.4712 13.348ZM65.41 21.104V20.95C66.3713 19.9607 67.104 18.808 67.608 17.492C68.112 16.176 68.364 14.8133 68.364 13.404C68.364 11.9387 68.0933 10.5153 67.552 9.134C67.0106 7.75267 66.2033 6.56733 65.13 5.578V5.424H66.782C67.8086 6.33867 68.5833 7.50067 69.106 8.91C69.638 10.3193 69.904 11.8173 69.904 13.404C69.904 14.9533 69.6566 16.4047 69.162 17.758C68.6766 19.1113 67.9766 20.2267 67.062 21.104H65.41ZM82.6993 9.666H78.0093V12.452C78.2053 12.1907 78.4946 11.9713 78.8773 11.794C79.2693 11.6167 79.6846 11.528 80.1233 11.528C80.9073 11.528 81.542 11.696 82.0273 12.032C82.522 12.368 82.872 12.7927 83.0773 13.306C83.292 13.8193 83.3993 14.3607 83.3993 14.93C83.3993 15.6207 83.264 16.2367 82.9933 16.778C82.732 17.31 82.3353 17.73 81.8033 18.038C81.2806 18.346 80.6366 18.5 79.8713 18.5C78.854 18.5 78.0373 18.248 77.4213 17.744C76.8053 17.24 76.4366 16.5727 76.3153 15.742H77.8693C77.972 16.1807 78.2006 16.5307 78.5553 16.792C78.91 17.044 79.3533 17.17 79.8853 17.17C80.548 17.17 81.0426 16.9693 81.3693 16.568C81.7053 16.1667 81.8733 15.6347 81.8733 14.972C81.8733 14.3 81.7053 13.7867 81.3693 13.432C81.0333 13.068 80.5386 12.886 79.8853 12.886C79.428 12.886 79.0406 13.0027 78.7233 13.236C78.4153 13.46 78.1913 13.768 78.0513 14.16H76.5393V8.266H82.6993V9.666ZM91.6407 9.666H86.9507V12.452C87.1467 12.1907 87.436 11.9713 87.8187 11.794C88.2107 11.6167 88.626 11.528 89.0647 11.528C89.8487 11.528 90.4834 11.696 90.9687 12.032C91.4634 12.368 91.8134 12.7927 92.0187 13.306C92.2334 13.8193 92.3407 14.3607 92.3407 14.93C92.3407 15.6207 92.2054 16.2367 91.9347 16.778C91.6734 17.31 91.2767 17.73 90.7447 18.038C90.222 18.346 89.578 18.5 88.8127 18.5C87.7954 18.5 86.9787 18.248 86.3627 17.744C85.7467 17.24 85.378 16.5727 85.2567 15.742H86.8107C86.9134 16.1807 87.142 16.5307 87.4967 16.792C87.8514 17.044 88.2947 17.17 88.8267 17.17C89.4894 17.17 89.984 16.9693 90.3107 16.568C90.6467 16.1667 90.8147 15.6347 90.8147 14.972C90.8147 14.3 90.6467 13.7867 90.3107 13.432C89.9747 13.068 89.48 12.886 88.8267 12.886C88.3694 12.886 87.982 13.0027 87.6647 13.236C87.3567 13.46 87.1327 13.768 86.9927 14.16H85.4807V8.266H91.6407V9.666ZM100.582 9.666H95.8921V12.452C96.0881 12.1907 96.3774 11.9713 96.7601 11.794C97.1521 11.6167 97.5674 11.528 98.0061 11.528C98.7901 11.528 99.4248 11.696 99.9101 12.032C100.405 12.368 100.755 12.7927 100.96 13.306C101.175 13.8193 101.282 14.3607 101.282 14.93C101.282 15.6207 101.147 16.2367 100.876 16.778C100.615 17.31 100.218 17.73 99.6861 18.038C99.1634 18.346 98.5194 18.5 97.7541 18.5C96.7368 18.5 95.9201 18.248 95.3041 17.744C94.6881 17.24 94.3194 16.5727 94.1981 15.742H95.7521C95.8548 16.1807 96.0834 16.5307 96.4381 16.792C96.7928 17.044 97.2361 17.17 97.7681 17.17C98.4308 17.17 98.9254 16.9693 99.2521 16.568C99.5881 16.1667 99.7561 15.6347 99.7561 14.972C99.7561 14.3 99.5881 13.7867 99.2521 13.432C98.9161 13.068 98.4214 12.886 97.7681 12.886C97.3108 12.886 96.9234 13.0027 96.6061 13.236C96.2981 13.46 96.0741 13.768 95.9341 14.16H94.4221V8.266H100.582V9.666ZM109.076 12.76V14.104H103.322V12.76H109.076ZM111.133 13.264C111.133 11.6493 111.404 10.3893 111.945 9.484C112.496 8.56933 113.438 8.112 114.773 8.112C116.108 8.112 117.046 8.56933 117.587 9.484C118.138 10.3893 118.413 11.6493 118.413 13.264C118.413 14.8973 118.138 16.176 117.587 17.1C117.046 18.0147 116.108 18.472 114.773 18.472C113.438 18.472 112.496 18.0147 111.945 17.1C111.404 16.176 111.133 14.8973 111.133 13.264ZM116.845 13.264C116.845 12.508 116.794 11.8687 116.691 11.346C116.598 10.8233 116.402 10.3987 116.103 10.072C115.804 9.736 115.361 9.568 114.773 9.568C114.185 9.568 113.742 9.736 113.443 10.072C113.144 10.3987 112.944 10.8233 112.841 11.346C112.748 11.8687 112.701 12.508 112.701 13.264C112.701 14.048 112.748 14.706 112.841 15.238C112.934 15.77 113.13 16.1993 113.429 16.526C113.737 16.8527 114.185 17.016 114.773 17.016C115.361 17.016 115.804 16.8527 116.103 16.526C116.411 16.1993 116.612 15.77 116.705 15.238C116.798 14.706 116.845 14.048 116.845 13.264ZM119.892 9.75V8.294H122.804V18.5H121.194V9.75H119.892ZM124.786 9.75V8.294H127.698V18.5H126.088V9.75H124.786ZM129.695 16.372V15.168L134.399 8.42H136.331V14.986H137.633V16.372H136.331V18.5H134.763V16.372H129.695ZM134.833 10.044L131.529 14.986H134.833V10.044Z" fill="white"/>
</svg>
